<?xml version="1.0" encoding="utf-8"?>
<!-- Generator: Adobe Illustrator 25.4.1, SVG Export Plug-In . SVG Version: 6.00 Build 0)  -->
<svg version="1.1" id="Layer_1" xmlns="http://www.w3.org/2000/svg" x="0px" y="0px"
	 viewBox="0 0 1361 362" style="enable-background:new 0 0 1361 362;" xml:space="preserve">
<style type="text/css">
	.st0{fill:#171717;}
	.st1{fill:#11AB51;}
	.st2{fill:#87D050;}
	.st3{fill:#FFFFFF;}
	.st4{fill:#49BE7A;}
</style>
	<g>
	<path class="st0" d="M532.6,245h-19.9l-2.5-12.3c-6.4,6.6-18.5,14.6-35.4,14.6c-27.6,0-39.2-19-39.2-64.1c0-48.6,14.6-63.4,55-63.4
		c14.4,0,26.2,1.1,37.7,4.3l-2.1,19.9c-12.1-0.5-24-0.9-34.7-0.9c-20.5,0-27.2,5.3-27.2,40.9c0,30.6,4.8,40,20.1,40
		c8.7,0,15.8-2.8,22.1-6.2V174h26.2L532.6,245L532.6,245z"/>
		<path class="st0" d="M613.3,179.1h-7.1c-7.5,0-15.1,2.1-26.9,6.1V245H553v-87.8h20.5l2.3,12.8c11.7-10,24.2-15.3,35.6-15.3h4.6
		L613.3,179.1z"/>
		<path class="st0" d="M651.5,209.9c1.6,13.2,7.5,16.2,20.8,16.2c8,0,20.8-0.7,32.8-2l2.5,16.4c-10.3,5-25.8,6.6-38.3,6.6
		c-33.3,0-45.7-13.5-45.7-45.9c0-34.7,12.8-46.5,44.7-46.5c29.9,0,41.5,10.5,41.7,30.6c0,16-7.7,24.6-26.7,24.6H651.5L651.5,209.9z
		 M675.9,194c7.1,0,8.2-4.1,8.2-9.1c0-8.2-3.6-11-15-11c-13.2,0-17.4,3.6-18.2,20.1H675.9z"/>
		<path class="st0" d="M751.2,209.9c1.6,13.2,7.5,16.2,20.8,16.2c8,0,20.8-0.7,32.8-2l2.5,16.4c-10.3,5-25.8,6.6-38.3,6.6
		c-33.3,0-45.7-13.5-45.7-45.9c0-34.7,12.8-46.5,44.7-46.5c29.9,0,41.5,10.5,41.7,30.6c0,16-7.7,24.6-26.7,24.6H751.2L751.2,209.9z
		 M775.6,194c7.1,0,8.2-4.1,8.2-9.1c0-8.2-3.6-11-15-11c-13.2,0-17.4,3.6-18.2,20.1H775.6z"/>
		<path class="st0" d="M850,170.2c12.3-10,25.1-15.5,37.6-15.5c16,0,24.6,8.5,24.6,24.4V245H886v-57.7c0-8-2.1-10.3-8.5-10.3
		c-7.1,0-14.1,2.8-24.4,8v60h-26.3v-87.8h21.4L850,170.2z"/>
		<path class="st0" d="M959.5,148.3c0,7.3-0.5,14.2-2.3,20.6c8.4-8.5,19.6-14.2,31.1-14.2c22.6,0,32.2,13,32.2,45.6
		c0,26.9-7.8,46.8-42.9,46.8c-12.5,0-33.8-2.1-44.7-6.8v-120h26.5v28L959.5,148.3L959.5,148.3z M959.3,225.9
		c5.9,1.2,12.8,1.8,17.8,1.6c11.9-0.4,16.4-6.2,16.4-27.1c0-19-2.7-24.7-15.7-24.7c-6.9,0-12.1,3.2-18.5,7.5V225.9z"/>
		<path class="st0" d="M1125.2,201.2c0,33.6-12.3,46.1-45,46.1c-32.9,0-45.2-12.5-45.2-46.1c0-33.8,12.3-46.5,45.2-46.5
		C1112.9,154.7,1125.2,167.3,1125.2,201.2z M1062.5,201.2c0,21,3.7,26.3,17.6,26.3c13.5,0,17.4-5.3,17.4-26.3
		c0-21.4-3.9-26.7-17.4-26.7C1066.3,174.5,1062.5,179.8,1062.5,201.2z"/>
		<path class="st0" d="M1166.5,170.2c12.3-10,25.1-15.5,37.6-15.5c16,0,24.6,8.5,24.6,24.4V245h-26.2v-57.7c0-8-2.1-10.3-8.5-10.3
		c-7.1,0-14.1,2.8-24.4,8v60h-26.3v-87.8h21.4L1166.5,170.2z"/>
		<path class="st0" d="M1274,209.9c1.6,13.2,7.5,16.2,20.8,16.2c8,0,20.8-0.7,32.8-2l2.5,16.4c-10.3,5-25.8,6.6-38.3,6.6
		c-33.3,0-45.7-13.5-45.7-45.9c0-34.7,12.8-46.5,44.7-46.5c29.9,0,41.5,10.5,41.7,30.6c0,16-7.7,24.6-26.7,24.6H1274L1274,209.9z
		 M1298.4,194c7.1,0,8.2-4.1,8.2-9.1c0-8.2-3.6-11-15-11c-13.2,0-17.4,3.6-18.2,20.1H1298.4z"/>
</g>
	<g>
	<path class="st1" d="M341.8,218.7L341.8,218.7c0,0.1,0,0.2,0,0.2l0,0c-1.1,7.5-5.3,14.1-13.8,15.1c-7.1,0-11-6.2-6.9-11.2
		c1.4-1.8,2.4-6.7,2.1-11.1c-0.3-3.9,0.8-9,2.4-12c0.2-0.4,0.4-0.7,0.6-1c7.8-8.6,14.6,0.8,15.8,12.1
		C342.2,213.5,342.2,216.1,341.8,218.7z"/>
		<path class="st1" d="M323.5,183.6c-3,2.5-4.6,4.3-5.5,5.5c-2.3,2.9-0.9,1.8-9.8-2.2c-8-0.5-11.2-5.7-7.9-17.7
		c0.4-1.3,0.7-2.4,1.1-3.4c2.9-7.9,5.9-5.7,11.9-2.6c2.5,1.3,6.6,3.1,9.2,3.8C328,168.9,328.7,180.5,323.5,183.6z"/>
		<path class="st1" d="M247,304.9c-28.1,18.5-63.3,54.1-99.2,47c-7.6-3-9.8-7-5.1-7.7c0.5-0.1,1.1-0.1,1.8-0.1
		c21.2-10,75.2-52.6,97.7-69.3c6.1-5.7,10.5-8.5,10.5-19.8c0-14.9-8-31.2-15.1-31.2c-2.9,0-3.5-1.3-2.2-4.5c2.4-5.8,3.5-9.3,3-12.2
		c-0.4-2.8-2.1-5-5.4-8c-8.8-8-9.9-26.7-2.1-33.7c5.6-5,32-14.8,39.8-14.8c5.8,0,9.3,9.6,6.8,19.2c-1.3,5.3,0.3,7.2,10.8,13.3
		c6.8,3.9,14.7,9.4,17.5,12.1C332.4,236.5,280.2,281.8,247,304.9z"/>
		<path class="st1" d="M297,148c-0.9,0.7-1.7,1.7-2.5,2.8c-1.8,2.7-3.1,6.3-3.3,9.7c-0.6,13.3-3.2,12.1-4.5-2.2
		c-0.6-7.3-1.9-13.9-2.7-14.7c-0.8-0.7-8.1-2.1-16.2-2.9c-13.9-1.4-15.7-0.9-29.9,8.7c-25.1,16.9-29.3,29.1-16,46.4
		c3.9,5.1,7.1,11,7.1,13.2c0,3.6-9.3,10.5-25.2,18.8c-18.5,14.6-25.2,41.1-52.1,45.5c-10.7,3.5-22.1,7.9-25.4,9.4
		c-12.7,9.5-16.4,22.9-25.4,34.6c-25.7,17-58.3-4.3-71-37.8c-0.8-2.2-1.6-4.5-2.3-6.8c42.7-100.9,94-149,179.2-207.7
		c0.8,0-0.9,10.5-3.2,14.9c-0.5,0.9-0.9,1.8-1.2,2.6l0,0l0,0c-2.6,6.3-1.6,10.4,2.7,10.4c0.3,0,0.7,0,1-0.1
		c5.3-1.5,8.3-15.8,14-62.2c1.1-9.1,1.5-10.8,4.4-8.5c0.6,0.4,1.2,1,2,1.7c6.7,6.8,9.3,16.1,15.3,23.7
		c13.4,20.1,16.3,29.2,16.3,52.2c0,17.5,2.8,25.4,7.3,20.9c0.9-0.8,1.9-7.1,2.2-13.9c0.3-8.4-0.8-21.2,1.7-21.2
		c1.2,0,3.1,1.9,5.4,4.9c7.2,9.5,17.7,29.8,17.7,35.4c0,3.3,2.3,8.7,5,12C302.3,143.6,302.3,143.8,297,148z"/>
		<path class="st1" d="M183.4,77.1c-2.5,0-2.4-12.6,0.2-35.3l1.8-15.7l5.8,12c3.2,6.6,7.6,13.5,10,15.5
		C206.6,62.5,190.1,72,183.4,77.1z"/>
</g>
	<path class="st2" d="M145.4,104.9c-1.3,1.1-2.6,2.1-3.9,3.2c1.1-1,1.9-1.8,3.3-2.9C145,105.1,145.2,105,145.4,104.9z"/>
	<path class="st0" d="M72,243.3c-3.5-3.4-7.5-5.5-9.1-4.4c-3.2,2.1-8.9,17.6-8.9,24.4c0,5.3,2.8,6.3,6.7,2.6c1.4-1.3,5.6-2.8,9.2-3.3
	C79.1,261.2,80.2,251.3,72,243.3z M170.2,129.4c-3,0-8.2-1.3-8.2-4.5c0-9.2-1.4-8.7-11.1,2.5c-5.3,6-9.5,11.9-9.5,13
	c0,1.2-3.6,9.7-8,18.8c-8,16.4-9.8,25.2-6.1,28.8c1.1,1,3.5-0.1,5.4-2.6c17-12.1,35.3,15,53.7-32.6
	C186.6,140.5,178.8,129.4,170.2,129.4z M148.6,178.9c-10,0-12.6-2.8-11-8.3c4.3-13.9,16.3-32,21.8-32.9c10-1.4,16.5-3.9,20.4,9.6
	C183.6,160.8,166.1,178.8,148.6,178.9z M170.2,129.4c-3,0-8.2-1.3-8.2-4.5c0-9.2-1.4-8.7-11.1,2.5c-5.3,6-9.5,11.9-9.5,13
	c0,1.2-3.6,9.7-8,18.8c-8,16.4-9.8,25.2-6.1,28.8c1.1,1,3.5-0.1,5.4-2.6c17-12.1,35.3,15,53.7-32.6
	C186.6,140.5,178.8,129.4,170.2,129.4z M148.6,178.9c-10,0-12.6-2.8-11-8.3c4.3-13.9,16.3-32,21.8-32.9c10-1.4,16.5-3.9,20.4,9.6
	C183.6,160.8,166.1,178.8,148.6,178.9z M72,243.3c-3.5-3.4-7.5-5.5-9.1-4.4c-3.2,2.1-8.9,17.6-8.9,24.4c0,5.3,2.8,6.3,6.7,2.6
	c1.4-1.3,5.6-2.8,9.2-3.3C79.1,261.2,80.2,251.3,72,243.3z M72,243.3c-3.5-3.4-7.5-5.5-9.1-4.4c-3.2,2.1-8.9,17.6-8.9,24.4
	c0,5.3,2.8,6.3,6.7,2.6c1.4-1.3,5.6-2.8,9.2-3.3C79.1,261.2,80.2,251.3,72,243.3z M170.2,129.4c-3,0-8.2-1.3-8.2-4.5
	c0-9.2-1.4-8.7-11.1,2.5c-5.3,6-9.5,11.9-9.5,13c0,1.2-3.6,9.7-8,18.8c-8,16.4-9.8,25.2-6.1,28.8c1.1,1,3.5-0.1,5.4-2.6
	c17-12.1,35.3,15,53.7-32.6C186.6,140.5,178.8,129.4,170.2,129.4z M148.6,178.9c-10,0-12.6-2.8-11-8.3c4.3-13.9,16.3-32,21.8-32.9
	c10-1.4,16.5-3.9,20.4,9.6C183.6,160.8,166.1,178.8,148.6,178.9z M170.2,129.4c-3,0-8.2-1.3-8.2-4.5c0-9.2-1.4-8.7-11.1,2.5
	c-5.3,6-9.5,11.9-9.5,13c0,1.2-3.6,9.7-8,18.8c-8,16.4-9.8,25.2-6.1,28.8c1.1,1,3.5-0.1,5.4-2.6c17-12.1,35.3,15,53.7-32.6
	C186.6,140.5,178.8,129.4,170.2,129.4z M148.6,178.9c-10,0-12.6-2.8-11-8.3c4.3-13.9,16.3-32,21.8-32.9c10-1.4,16.5-3.9,20.4,9.6
	C183.6,160.8,166.1,178.8,148.6,178.9z M72,243.3c-3.5-3.4-7.5-5.5-9.1-4.4c-3.2,2.1-8.9,17.6-8.9,24.4c0,5.3,2.8,6.3,6.7,2.6
	c1.4-1.3,5.6-2.8,9.2-3.3C79.1,261.2,80.2,251.3,72,243.3z M72,243.3c-3.5-3.4-7.5-5.5-9.1-4.4c-3.2,2.1-8.9,17.6-8.9,24.4
	c0,5.3,2.8,6.3,6.7,2.6c1.4-1.3,5.6-2.8,9.2-3.3C79.1,261.2,80.2,251.3,72,243.3z M170.2,129.4c-3,0-8.2-1.3-8.2-4.5
	c0-9.2-1.4-8.7-11.1,2.5c-5.3,6-9.5,11.9-9.5,13c0,1.2-3.6,9.7-8,18.8c-8,16.4-9.8,25.2-6.1,28.8c1.1,1,3.5-0.1,5.4-2.6
	c17-12.1,35.3,15,53.7-32.6C186.6,140.5,178.8,129.4,170.2,129.4z M148.6,178.9c-10,0-12.6-2.8-11-8.3c4.3-13.9,16.3-32,21.8-32.9
	c10-1.4,16.5-3.9,20.4,9.6C183.6,160.8,166.1,178.8,148.6,178.9z M170.2,129.4c-3,0-8.2-1.3-8.2-4.5c0-9.2-1.4-8.7-11.1,2.5
	c-5.3,6-9.5,11.9-9.5,13c0,1.2-3.6,9.7-8,18.8c-8,16.4-9.8,25.2-6.1,28.8c1.1,1,3.5-0.1,5.4-2.6c17-12.1,35.3,15,53.7-32.6
	C186.6,140.5,178.8,129.4,170.2,129.4z M148.6,178.9c-10,0-12.6-2.8-11-8.3c4.3-13.9,16.3-32,21.8-32.9c10-1.4,16.5-3.9,20.4,9.6
	C183.6,160.8,166.1,178.8,148.6,178.9z M72,243.3c-3.5-3.4-7.5-5.5-9.1-4.4c-3.2,2.1-8.9,17.6-8.9,24.4c0,5.3,2.8,6.3,6.7,2.6
	c1.4-1.3,5.6-2.8,9.2-3.3C79.1,261.2,80.2,251.3,72,243.3z M72,243.3c-3.5-3.4-7.5-5.5-9.1-4.4c-3.2,2.1-8.9,17.6-8.9,24.4
	c0,5.3,2.8,6.3,6.7,2.6c1.4-1.3,5.6-2.8,9.2-3.3C79.1,261.2,80.2,251.3,72,243.3z M170.2,129.4c-3,0-8.2-1.3-8.2-4.5
	c0-9.2-1.4-8.7-11.1,2.5c-5.3,6-9.5,11.9-9.5,13c0,1.2-3.6,9.7-8,18.8c-8,16.4-9.8,25.2-6.1,28.8c1.1,1,3.5-0.1,5.4-2.6
	c17-12.1,35.3,15,53.7-32.6C186.6,140.5,178.8,129.4,170.2,129.4z M148.6,178.9c-10,0-12.6-2.8-11-8.3c4.3-13.9,16.3-32,21.8-32.9
	c10-1.4,16.5-3.9,20.4,9.6C183.6,160.8,166.1,178.8,148.6,178.9z M170.2,129.4c-3,0-8.2-1.3-8.2-4.5c0-9.2-1.4-8.7-11.1,2.5
	c-5.3,6-9.5,11.9-9.5,13c0,1.2-3.6,9.7-8,18.8c-8,16.4-9.8,25.2-6.1,28.8c1.1,1,3.5-0.1,5.4-2.6c17-12.1,35.3,15,53.7-32.6
	C186.6,140.5,178.8,129.4,170.2,129.4z M148.6,178.9c-10,0-12.6-2.8-11-8.3c4.3-13.9,16.3-32,21.8-32.9c10-1.4,16.5-3.9,20.4,9.6
	C183.6,160.8,166.1,178.8,148.6,178.9z M72,243.3c-3.5-3.4-7.5-5.5-9.1-4.4c-3.2,2.1-8.9,17.6-8.9,24.4c0,5.3,2.8,6.3,6.7,2.6
	c1.4-1.3,5.6-2.8,9.2-3.3C79.1,261.2,80.2,251.3,72,243.3z M72,243.3c-3.5-3.4-7.5-5.5-9.1-4.4c-3.2,2.1-8.9,17.6-8.9,24.4
	c0,5.3,2.8,6.3,6.7,2.6c1.4-1.3,5.6-2.8,9.2-3.3C79.1,261.2,80.2,251.3,72,243.3z M170.2,129.4c-3,0-8.2-1.3-8.2-4.5
	c0-9.2-1.4-8.7-11.1,2.5c-5.3,6-9.5,11.9-9.5,13c0,1.2-3.6,9.7-8,18.8c-8,16.4-9.8,25.2-6.1,28.8c1.1,1,3.5-0.1,5.4-2.6
	c17-12.1,35.3,15,53.7-32.6C186.6,140.5,178.8,129.4,170.2,129.4z M148.6,178.9c-10,0-12.6-2.8-11-8.3c4.3-13.9,16.3-32,21.8-32.9
	c10-1.4,16.5-3.9,20.4,9.6C183.6,160.8,166.1,178.8,148.6,178.9z M170.2,129.4c-3,0-8.2-1.3-8.2-4.5c0-9.2-1.4-8.7-11.1,2.5
	c-5.3,6-9.5,11.9-9.5,13c0,1.2-3.6,9.7-8,18.8c-8,16.4-9.8,25.2-6.1,28.8c1.1,1,3.5-0.1,5.4-2.6c17-12.1,35.3,15,53.7-32.6
	C186.6,140.5,178.8,129.4,170.2,129.4z M148.6,178.9c-10,0-12.6-2.8-11-8.3c4.3-13.9,16.3-32,21.8-32.9c10-1.4,16.5-3.9,20.4,9.6
	C183.6,160.8,166.1,178.8,148.6,178.9z M72,243.3c-3.5-3.4-7.5-5.5-9.1-4.4c-3.2,2.1-8.9,17.6-8.9,24.4c0,5.3,2.8,6.3,6.7,2.6
	c1.4-1.3,5.6-2.8,9.2-3.3C79.1,261.2,80.2,251.3,72,243.3z M72,243.3c-3.5-3.4-7.5-5.5-9.1-4.4c-3.2,2.1-8.9,17.6-8.9,24.4
	c0,5.3,2.8,6.3,6.7,2.6c1.4-1.3,5.6-2.8,9.2-3.3C79.1,261.2,80.2,251.3,72,243.3z M170.2,129.4c-3,0-8.2-1.3-8.2-4.5
	c0-9.2-1.4-8.7-11.1,2.5c-5.3,6-9.5,11.9-9.5,13c0,1.2-3.6,9.7-8,18.8c-8,16.4-9.8,25.2-6.1,28.8c1.1,1,3.5-0.1,5.4-2.6
	c17-12.1,35.3,15,53.7-32.6C186.6,140.5,178.8,129.4,170.2,129.4z M148.6,178.9c-10,0-12.6-2.8-11-8.3c4.3-13.9,16.3-32,21.8-32.9
	c10-1.4,16.5-3.9,20.4,9.6C183.6,160.8,166.1,178.8,148.6,178.9z M202.5,82.5L202.5,82.5L202.5,82.5L202.5,82.5z M215.8,18.6
	l0.3-0.7C216,17.8,216,18,215.8,18.6z M72,243.3c-3.5-3.4-7.5-5.5-9.1-4.4c-3.2,2.1-8.9,17.6-8.9,24.4c0,5.3,2.8,6.3,6.7,2.6
	c1.4-1.3,5.6-2.8,9.2-3.3C79.1,261.2,80.2,251.3,72,243.3z M170.2,129.4c-3,0-8.2-1.3-8.2-4.5c0-9.2-1.4-8.7-11.1,2.5
	c-5.3,6-9.5,11.9-9.5,13c0,1.2-3.6,9.7-8,18.8c-8,16.4-9.8,25.2-6.1,28.8c1.1,1,3.5-0.1,5.4-2.6c17-12.1,35.3,15,53.7-32.6
	C186.6,140.5,178.8,129.4,170.2,129.4z M148.6,178.9c-10,0-12.6-2.8-11-8.3c4.3-13.9,16.3-32,21.8-32.9c10-1.4,16.5-3.9,20.4,9.6
	C183.6,160.8,166.1,178.8,148.6,178.9z M170.2,129.4c-3,0-8.2-1.3-8.2-4.5c0-9.2-1.4-8.7-11.1,2.5c-5.3,6-9.5,11.9-9.5,13
	c0,1.2-3.6,9.7-8,18.8c-8,16.4-9.8,25.2-6.1,28.8c1.1,1,3.5-0.1,5.4-2.6c17-12.1,35.3,15,53.7-32.6
	C186.6,140.5,178.8,129.4,170.2,129.4z M148.6,178.9c-10,0-12.6-2.8-11-8.3c4.3-13.9,16.3-32,21.8-32.9c10-1.4,16.5-3.9,20.4,9.6
	C183.6,160.8,166.1,178.8,148.6,178.9z M72,243.3c-3.5-3.4-7.5-5.5-9.1-4.4c-3.2,2.1-8.9,17.6-8.9,24.4c0,5.3,2.8,6.3,6.7,2.6
	c1.4-1.3,5.6-2.8,9.2-3.3C79.1,261.2,80.2,251.3,72,243.3z M72,243.3c-3.5-3.4-7.5-5.5-9.1-4.4c-3.2,2.1-8.9,17.6-8.9,24.4
	c0,5.3,2.8,6.3,6.7,2.6c1.4-1.3,5.6-2.8,9.2-3.3C79.1,261.2,80.2,251.3,72,243.3z M170.2,129.4c-3,0-8.2-1.3-8.2-4.5
	c0-9.2-1.4-8.7-11.1,2.5c-5.3,6-9.5,11.9-9.5,13c0,1.2-3.6,9.7-8,18.8c-8,16.4-9.8,25.2-6.1,28.8c1.1,1,3.5-0.1,5.4-2.6
	c17-12.1,35.3,15,53.7-32.6C186.6,140.5,178.8,129.4,170.2,129.4z M148.6,178.9c-10,0-12.6-2.8-11-8.3c4.3-13.9,16.3-32,21.8-32.9
	c10-1.4,16.5-3.9,20.4,9.6C183.6,160.8,166.1,178.8,148.6,178.9z M170.2,129.4c-3,0-8.2-1.3-8.2-4.5c0-9.2-1.4-8.7-11.1,2.5
	c-5.3,6-9.5,11.9-9.5,13c0,1.2-3.6,9.7-8,18.8c-8,16.4-9.8,25.2-6.1,28.8c1.1,1,3.5-0.1,5.4-2.6c17-12.1,35.3,15,53.7-32.6
	C186.6,140.5,178.8,129.4,170.2,129.4z M148.6,178.9c-10,0-12.6-2.8-11-8.3c4.3-13.9,16.3-32,21.8-32.9c10-1.4,16.5-3.9,20.4,9.6
	C183.6,160.8,166.1,178.8,148.6,178.9z M72,243.3c-3.5-3.4-7.5-5.5-9.1-4.4c-3.2,2.1-8.9,17.6-8.9,24.4c0,5.3,2.8,6.3,6.7,2.6
	c1.4-1.3,5.6-2.8,9.2-3.3C79.1,261.2,80.2,251.3,72,243.3z M72,243.3c-3.5-3.4-7.5-5.5-9.1-4.4c-3.2,2.1-8.9,17.6-8.9,24.4
	c0,5.3,2.8,6.3,6.7,2.6c1.4-1.3,5.6-2.8,9.2-3.3C79.1,261.2,80.2,251.3,72,243.3z M170.2,129.4c-3,0-8.2-1.3-8.2-4.5
	c0-9.2-1.4-8.7-11.1,2.5c-5.3,6-9.5,11.9-9.5,13c0,1.2-3.6,9.7-8,18.8c-8,16.4-9.8,25.2-6.1,28.8c1.1,1,3.5-0.1,5.4-2.6
	c17-12.1,35.3,15,53.7-32.6C186.6,140.5,178.8,129.4,170.2,129.4z M148.6,178.9c-10,0-12.6-2.8-11-8.3c4.3-13.9,16.3-32,21.8-32.9
	c10-1.4,16.5-3.9,20.4,9.6C183.6,160.8,166.1,178.8,148.6,178.9z M170.2,129.4c-3,0-8.2-1.3-8.2-4.5c0-9.2-1.4-8.7-11.1,2.5
	c-5.3,6-9.5,11.9-9.5,13c0,1.2-3.6,9.7-8,18.8c-8,16.4-9.8,25.2-6.1,28.8c1.1,1,3.5-0.1,5.4-2.6c17-12.1,35.3,15,53.7-32.6
	C186.6,140.5,178.8,129.4,170.2,129.4z M148.6,178.9c-10,0-12.6-2.8-11-8.3c4.3-13.9,16.3-32,21.8-32.9c10-1.4,16.5-3.9,20.4,9.6
	C183.6,160.8,166.1,178.8,148.6,178.9z M72,243.3c-3.5-3.4-7.5-5.5-9.1-4.4c-3.2,2.1-8.9,17.6-8.9,24.4c0,5.3,2.8,6.3,6.7,2.6
	c1.4-1.3,5.6-2.8,9.2-3.3C79.1,261.2,80.2,251.3,72,243.3z M72,243.3c-3.5-3.4-7.5-5.5-9.1-4.4c-3.2,2.1-8.9,17.6-8.9,24.4
	c0,5.3,2.8,6.3,6.7,2.6c1.4-1.3,5.6-2.8,9.2-3.3C79.1,261.2,80.2,251.3,72,243.3z M170.2,129.4c-3,0-8.2-1.3-8.2-4.5
	c0-9.2-1.4-8.7-11.1,2.5c-5.3,6-9.5,11.9-9.5,13c0,1.2-3.6,9.7-8,18.8c-8,16.4-9.8,25.2-6.1,28.8c1.1,1,3.5-0.1,5.4-2.6
	c17-12.1,35.3,15,53.7-32.6C186.6,140.5,178.8,129.4,170.2,129.4z M148.6,178.9c-10,0-12.6-2.8-11-8.3c4.3-13.9,16.3-32,21.8-32.9
	c10-1.4,16.5-3.9,20.4,9.6C183.6,160.8,166.1,178.8,148.6,178.9z M170.2,129.4c-3,0-8.2-1.3-8.2-4.5c0-9.2-1.4-8.7-11.1,2.5
	c-5.3,6-9.5,11.9-9.5,13c0,1.2-3.6,9.7-8,18.8c-8,16.4-9.8,25.2-6.1,28.8c1.1,1,3.5-0.1,5.4-2.6c17-12.1,35.3,15,53.7-32.6
	C186.6,140.5,178.8,129.4,170.2,129.4z M148.6,178.9c-10,0-12.6-2.8-11-8.3c4.3-13.9,16.3-32,21.8-32.9c10-1.4,16.5-3.9,20.4,9.6
	C183.6,160.8,166.1,178.8,148.6,178.9z M72,243.3c-3.5-3.4-7.5-5.5-9.1-4.4c-3.2,2.1-8.9,17.6-8.9,24.4c0,5.3,2.8,6.3,6.7,2.6
	c1.4-1.3,5.6-2.8,9.2-3.3C79.1,261.2,80.2,251.3,72,243.3z M72,243.3c-3.5-3.4-7.5-5.5-9.1-4.4c-3.2,2.1-8.9,17.6-8.9,24.4
	c0,5.3,2.8,6.3,6.7,2.6c1.4-1.3,5.6-2.8,9.2-3.3C79.1,261.2,80.2,251.3,72,243.3z M170.2,129.4c-3,0-8.2-1.3-8.2-4.5
	c0-9.2-1.4-8.7-11.1,2.5c-5.3,6-9.5,11.9-9.5,13c0,1.2-3.6,9.7-8,18.8c-8,16.4-9.8,25.2-6.1,28.8c1.1,1,3.5-0.1,5.4-2.6
	c17-12.1,35.3,15,53.7-32.6C186.6,140.5,178.8,129.4,170.2,129.4z M148.6,178.9c-10,0-12.6-2.8-11-8.3c4.3-13.9,16.3-32,21.8-32.9
	c10-1.4,16.5-3.9,20.4,9.6C183.6,160.8,166.1,178.8,148.6,178.9z M170.2,129.4c-3,0-8.2-1.3-8.2-4.5c0-9.2-1.4-8.7-11.1,2.5
	c-5.3,6-9.5,11.9-9.5,13c0,1.2-3.6,9.7-8,18.8c-8,16.4-9.8,25.2-6.1,28.8c1.1,1,3.5-0.1,5.4-2.6c17-12.1,35.3,15,53.7-32.6
	C186.6,140.5,178.8,129.4,170.2,129.4z M148.6,178.9c-10,0-12.6-2.8-11-8.3c4.3-13.9,16.3-32,21.8-32.9c10-1.4,16.5-3.9,20.4,9.6
	C183.6,160.8,166.1,178.8,148.6,178.9z M72,243.3c-3.5-3.4-7.5-5.5-9.1-4.4c-3.2,2.1-8.9,17.6-8.9,24.4c0,5.3,2.8,6.3,6.7,2.6
	c1.4-1.3,5.6-2.8,9.2-3.3C79.1,261.2,80.2,251.3,72,243.3z M72,243.3c-3.5-3.4-7.5-5.5-9.1-4.4c-3.2,2.1-8.9,17.6-8.9,24.4
	c0,5.3,2.8,6.3,6.7,2.6c1.4-1.3,5.6-2.8,9.2-3.3C79.1,261.2,80.2,251.3,72,243.3z M170.2,129.4c-3,0-8.2-1.3-8.2-4.5
	c0-9.2-1.4-8.7-11.1,2.5c-5.3,6-9.5,11.9-9.5,13c0,1.2-3.6,9.7-8,18.8c-8,16.4-9.8,25.2-6.1,28.8c1.1,1,3.5-0.1,5.4-2.6
	c17-12.1,35.3,15,53.7-32.6C186.6,140.5,178.8,129.4,170.2,129.4z M148.6,178.9c-10,0-12.6-2.8-11-8.3c4.3-13.9,16.3-32,21.8-32.9
	c10-1.4,16.5-3.9,20.4,9.6C183.6,160.8,166.1,178.8,148.6,178.9z M170.2,129.4c-3,0-8.2-1.3-8.2-4.5c0-9.2-1.4-8.7-11.1,2.5
	c-5.3,6-9.5,11.9-9.5,13c0,1.2-3.6,9.7-8,18.8c-8,16.4-9.8,25.2-6.1,28.8c1.1,1,3.5-0.1,5.4-2.6c17-12.1,35.3,15,53.7-32.6
	C186.6,140.5,178.8,129.4,170.2,129.4z M148.6,178.9c-10,0-12.6-2.8-11-8.3c4.3-13.9,16.3-32,21.8-32.9c10-1.4,16.5-3.9,20.4,9.6
	C183.6,160.8,166.1,178.8,148.6,178.9z M72,243.3c-3.5-3.4-7.5-5.5-9.1-4.4c-3.2,2.1-8.9,17.6-8.9,24.4c0,5.3,2.8,6.3,6.7,2.6
	c1.4-1.3,5.6-2.8,9.2-3.3C79.1,261.2,80.2,251.3,72,243.3z M170.2,129.4c-3,0-8.2-1.3-8.2-4.5c0-9.2-1.4-8.7-11.1,2.5
	c-5.3,6-9.5,11.9-9.5,13c0,1.2-3.6,9.7-8,18.8c-8,16.4-9.8,25.2-6.1,28.8c1.1,1,3.5-0.1,5.4-2.6c17-12.1,35.3,15,53.7-32.6
	C186.6,140.5,178.8,129.4,170.2,129.4z M148.6,178.9c-10,0-12.6-2.8-11-8.3c4.3-13.9,16.3-32,21.8-32.9c10-1.4,16.5-3.9,20.4,9.6
	C183.6,160.8,166.1,178.8,148.6,178.9z M72,243.3c-3.5-3.4-7.5-5.5-9.1-4.4c-3.2,2.1-8.9,17.6-8.9,24.4c0,5.3,2.8,6.3,6.7,2.6
	c1.4-1.3,5.6-2.8,9.2-3.3C79.1,261.2,80.2,251.3,72,243.3z M72,243.3c-3.5-3.4-7.5-5.5-9.1-4.4c-3.2,2.1-8.9,17.6-8.9,24.4
	c0,5.3,2.8,6.3,6.7,2.6c1.4-1.3,5.6-2.8,9.2-3.3C79.1,261.2,80.2,251.3,72,243.3z M170.2,129.4c-3,0-8.2-1.3-8.2-4.5
	c0-9.2-1.4-8.7-11.1,2.5c-5.3,6-9.5,11.9-9.5,13c0,1.2-3.6,9.7-8,18.8c-8,16.4-9.8,25.2-6.1,28.8c1.1,1,3.5-0.1,5.4-2.6
	c17-12.1,35.3,15,53.7-32.6C186.6,140.5,178.8,129.4,170.2,129.4z M148.6,178.9c-10,0-12.6-2.8-11-8.3c4.3-13.9,16.3-32,21.8-32.9
	c10-1.4,16.5-3.9,20.4,9.6C183.6,160.8,166.1,178.8,148.6,178.9z"/>
	<path class="st3" d="M148.6,178.9c-10,0-12.6-2.8-11-8.3c4.3-13.9,16.3-32,21.8-32.9c10-1.4,16.5-3.9,20.4,9.6
	C183.6,160.8,166.1,178.8,148.6,178.9z"/>
	<path class="st0" d="M336.2,176.5v-17l-11,0.7c-10.2,0.6-11.3,0.1-13.9-7.5c-1.5-4.4-2.9-10.5-2.9-13.3s-2.9-8.6-6.5-12.8
	s-7.7-12.1-9.2-17.5C289.4,97.3,275.5,75,270,72.9C252,53,247.4,19,219.7,9.8c-6.8,0-6.5-3.5-6.5,14.6s-2.9,18.7-8,13.7
	c-2.9-2.8-7.2-8.2-9.7-11.9c-3.5-5.3-10.6-15.1-16.7-14.5l-0.3,9.7l-3.7,30.9c-0.6,28.6,2,29.6-17.4,43.1c-4,3.1-8,6.2-12,9.4l0,0
	c-1.3,1.1-2.6,2.1-3.9,3.2l-0.1,0.1c-51.8,43-94.2,96.9-116.4,161c-3.4,32.5,29.4,64.4,61.4,63.1c6-0.9,14.3-4,18.3-6.9
	c13.3-9.1,26.2,17,35,25.9c6.4,8.1,7.6,6.4,32.6,5.3c39.5-9.5,105.2-55.1,129.1-90.4c8.9-13.3,17.4-24.3,18.9-24.3
	C333.1,255.5,375.8,202.8,336.2,176.5z M216.1,17.8l-0.3,0.7C216,18,216,17.8,216.1,17.8z M183.6,41.8l1.8-15.7l5.8,12
	c3.2,6.6,7.6,13.5,10,15.5c5.5,8.9-11.1,18.4-17.8,23.6C180.9,77.1,181,64.5,183.6,41.8z M100.9,317.3c-25.7,17-58.3-4.3-71-37.8
	c-0.8-2.2-1.6-4.5-2.3-6.8c42.7-100.9,94-149,179.2-207.7c0.8,0-0.9,10.5-3.2,14.9c-0.5,0.9-0.9,1.8-1.2,2.6l0,0l0,0
	c-2.6,6.3-1.6,10.4,2.7,10.4c0.3,0,0.7,0,1-0.1c5.3-1.5,8.3-15.8,14-62.2c1.1-9.1,1.5-10.8,4.4-8.5c0.6,0.4,1.2,1,2,1.7
	c6.7,6.8,9.3,16.1,15.3,23.7c13.4,20.1,16.3,29.2,16.3,52.2c0,17.5,2.8,25.4,7.3,20.9c0.9-0.8,1.9-7.1,2.2-13.9
	c0.3-8.4-0.8-21.2,1.7-21.2c1.2,0,3.1,1.9,5.4,4.9c7.2,9.5,17.7,29.8,17.7,35.4c0,3.3,2.3,8.7,5,12c4.9,5.9,4.9,6.1-0.4,10.3
	c-0.9,0.7-1.7,1.7-2.5,2.8c-1.8,2.7-3.1,6.3-3.3,9.7c-0.6,13.3-3.2,12.1-4.5-2.2c-0.6-7.3-1.9-13.9-2.7-14.7
	c-0.8-0.7-8.1-2.1-16.2-2.9c-13.9-1.4-15.7-0.9-29.9,8.7c-25.1,16.9-29.3,29.1-16,46.4c3.9,5.1,7.1,11,7.1,13.2
	c0,3.6-9.3,10.5-25.2,18.8c-18.5,14.6-25.2,41.1-52.1,45.5c-10.7,3.5-22.1,7.9-25.4,9.4C113.6,292.2,109.9,305.7,100.9,317.3z
	 M121,318.9l-5.6-8l6.6-11c5.5-8.2,13.3-14.4,22.9-15.7c4.6-0.3,16.2-4.4,25.5-9.1c14.6-7.3,17.9-10.3,24.1-22.2
	c10.3-19.9,29.1-29.1,41.2-20.1c5,3.6,4.8,3.8-2.9,3.9c-10.1,0.1-14.5,4.2-14.5,13.6c0,5.7-1.2,7.3-5.6,7.3c-3.7,0-6.5,2.5-8.5,7.6
	c-1.8,4.6-5.5,8.4-9.4,9.3c-3.5,0.8-10.7,4.4-16,8c-5.3,3.5-13.3,6.4-17.9,6.4c-6.4,0-10.7,2.6-19.2,11.7c-11.7,12.5-14.9,18.9-5,10
	c8.5-7.6,16.4-11.3,24.8-11.3c4,0,9.4-2,12.1-4.3c2.7-2.4,11.2-6.4,18.8-8.9c10.7-3.5,14.8-6.3,17.7-12.5c2.5-5.5,5.9-8.3,10.5-8.8
	c5.9-0.7,7-2.3,7.7-10.6c0.8-9.1,1.5-9.8,9-9.8c7.9,0,8.1,0.3,6.7,10.1c-0.9,6.8-4.3,13-10.3,19c-21.5,18.6-47.3,30.5-68.2,49.2
	C143,338,133.6,337.2,121,318.9z M247,304.9c-28.1,18.5-63.3,54.1-99.2,47c-7.6-3-9.8-7-5.1-7.7c0.5-0.1,1.1-0.1,1.8-0.1
	c21.2-10,75.2-52.6,97.7-69.3c6.1-5.7,10.5-8.5,10.5-19.8c0-14.9-8-31.2-15.1-31.2c-2.9,0-3.5-1.3-2.2-4.5c2.4-5.8,3.5-9.3,3-12.2
	c-0.4-2.8-2.1-5-5.4-8c-8.8-8-9.9-26.7-2.1-33.7c5.6-5,32-14.8,39.8-14.8c5.8,0,9.3,9.6,6.8,19.2c-1.3,5.3,0.3,7.2,10.8,13.3
	c6.8,3.9,14.7,9.4,17.5,12.1C332.4,236.5,280.2,281.8,247,304.9z M318,189.1c-2.3,2.9-0.9,1.8-9.8-2.2c-8-0.5-11.2-5.7-7.9-17.7
	c0.4-1.3,0.7-2.4,1.1-3.4c2.9-7.9,5.9-5.7,11.9-2.6c2.5,1.3,6.6,3.1,9.2,3.8c5.6,1.8,6.3,13.4,1,16.5
	C320.4,186.2,318.9,188,318,189.1z M341.8,218.7L341.8,218.7c0,0.1,0,0.2,0,0.2l0,0c-1.1,7.5-5.3,14.1-13.8,15.1
	c-7.1,0-11-6.2-6.9-11.2c1.4-1.8,2.4-6.7,2.1-11.1c-0.3-3.9,0.8-9,2.4-12c0.2-0.4,0.4-0.7,0.6-1c7.8-8.6,14.6,0.8,15.8,12.1
	C342.2,213.5,342.2,216.1,341.8,218.7z"/>
	<path class="st3" d="M244.2,254.6c-0.9,6.8-4.3,13-10.3,19c-21.5,18.6-47.3,30.5-68.2,49.2c-22.7,15.2-32.1,14.4-44.7-3.9l-5.6-8
	l6.6-11c5.5-8.2,13.3-14.4,22.9-15.7c4.6-0.3,16.2-4.4,25.5-9.1c14.6-7.3,17.9-10.3,24.1-22.2c10.3-19.9,29.1-29.1,41.2-20.1
	c5,3.6,4.8,3.8-2.9,3.9c-10.1,0.1-14.5,4.2-14.5,13.6c0,5.7-1.2,7.3-5.6,7.3c-3.7,0-6.5,2.5-8.5,7.6c-1.8,4.6-5.5,8.4-9.4,9.3
	c-3.5,0.8-10.7,4.4-16,8c-5.3,3.5-13.3,6.4-17.9,6.4c-6.4,0-10.7,2.6-19.2,11.7c-11.7,12.5-14.9,18.9-5,10
	c8.5-7.6,16.4-11.3,24.8-11.3c4,0,9.4-2,12.1-4.3c2.7-2.4,11.2-6.4,18.8-8.9c10.7-3.5,14.8-6.3,17.7-12.5c2.5-5.5,5.9-8.3,10.5-8.8
	c5.9-0.7,7-2.3,7.7-10.6c0.8-9.1,1.5-9.8,9-9.8C245.4,244.5,245.6,244.8,244.2,254.6z"/>
	<g>
	<path class="st4" d="M341.9,210.9c-0.8-0.3-1.7-0.6-2.1-1.1c-0.9-1-2.7-2.6-4.2-3.3c-2-1-3-1.8-5.2-2.8c-1.3-0.7-3.3-2.4-4.9-3.8
		c0.2-0.4,0.4-0.7,0.6-1C334,190.3,340.7,199.7,341.9,210.9z"/>
		<path class="st4" d="M323.5,183.6c-3,2.5-4.6,4.3-5.5,5.5c-1.7-1.6-2.2-3.9-3.7-5.5c-2-1.9-4.3-5.4-5.7-8c-0.9-2-2-3.4-3.3-5.2
		c-1.1-1.3-2.8-2.9-3.9-4.6c2.9-7.9,5.9-5.7,11.9-2.6c2.5,1.3,6.6,3.1,9.2,3.8C328,168.9,328.7,180.5,323.5,183.6z"/>
		<path class="st4" d="M297,148c-0.9,0.7-1.7,1.7-2.5,2.8c-0.8-1.3-1.9-2.6-2.5-4.5c-0.7-2.7-2.3-4.5-2.9-7c-0.6-2.4-1.2-4.8-2.4-7
		c-0.9-1.9-1.7-6.3-2.9-8c-1.9-2.4-1.7-4.5-2.9-7c-0.7-1.5-2.3-4.6-2.8-6.5c-0.6-2.2-0.5-5.2-1.4-7s-0.9-4-1.4-6.1
		c-0.5-2-0.6-5.2-0.6-7.3c7.2,9.5,17.7,29.8,17.7,35.4c0,3.3,2.3,8.7,5,12C302.3,143.6,302.3,143.8,297,148z"/>
		<path class="st4" d="M203.7,79.9c-0.5,0.9-0.9,1.8-1.2,2.6l0,0c-0.2,0.1-0.4,0.2-0.5,0.3c-1.9,0.9-5.8,2.9-7.5,4.6
		c-2.2,2.2-5.1,4-8.1,5.6c-3.5,1.8-7,2.7-10.4,5.2c-2.5,1.9-6,3.1-8.1,5.2c-2,2-4,2.5-6.6,3.7c-2.2,1.1-4.4,2.1-6.1,3.3
		c-1.9,1.4-4.1,2.1-6.6,3.3c-1.2,0.6-3.5,2.9-4.2,4.2c-0.7,1.3-2.4,3.6-2.9,5.6c-0.7,2.7-2.5,2.9-3.8,5.6c-1.1,2.4-2.7,3.5-4.2,5.6
		c-1.7,2.2-3.1,4-5.2,5.6c-2.2,1.7-4.8,3.8-6.6,5.6c-1.8,1.7-3.6,3.2-4.8,5.6c-1.7,3.3-5.1,6.3-7.5,9.3c-5.1,6-11.2,13.6-15.2,20.6
		c-4,6.8-9.6,13.3-13.7,20.6c-2.9,5.1-5.7,10.4-9.5,15c-3.5,4.1-6.1,9.7-9.9,13.5c-2.3,2.2-5.6,7.1-7.1,10.2c-1.5,3.1-4.9,6-5.7,9.3
		c-0.6,2.6-2.1,4.3-3.7,6.5c-1.8,2.3-3.2,6-4.8,7.4c-1.2,1.1-2.9,2.8-3.8,4.6c-0.9,1.9-2.4,3-3.3,5.2c-0.7,1.9-2.1,4.2-2.6,5.9
		c-0.8-2.2-1.6-4.5-2.3-6.8c42.7-100.9,94-149,179.2-207.7C207.8,65,206,75.6,203.7,79.9z"/>
		<path class="st4" d="M224.6,24.5v11.3c0,3.1-0.6,6.9-0.6,9.2c0,3.6-1.3,6.9-1.3,9.9v9.9c0,3,0.7,7,0,9.9c-0.6,2.2,0,6.9-0.7,9.9
		c-0.9,3.8-1,7.2-6,7.2c-2.9,0-8.5,2.6-9.8,0.9c5.3-1.5,8.3-15.8,14-62.2c1.1-9.1,1.5-10.8,4.4-8.5
		C224.6,22.9,224.6,23.7,224.6,24.5z"/>
</g>
</svg>
